<svg xmlns="http://www.w3.org/2000/svg" width="51.759" height="68.455" viewBox="0 0 51.759 68.455"><g transform="translate(-70 -10)"><path d="M399.344,96.158c.117,0,.235,0,.354-.015l2.7-.265v-.226q0-.092-.009-.184l-4.452.437A4.014,4.014,0,0,0,399.344,96.158Z" transform="translate(-282.308 -73.577)" fill="#d4e1f4"/><path d="M86.174,85.054V24.062A2.144,2.144,0,0,1,88.386,22H84.212A2.144,2.144,0,0,0,82,24.062V85.054a2.144,2.144,0,0,0,2.212,2.062h4.174A2.144,2.144,0,0,1,86.174,85.054Z" transform="translate(-10.33 -10.33)" fill="#042340" opacity="0.05"/><path d="M121.47,20.665a3.71,3.71,0,0,0-.707-1.085l-7.81-8.344a3.871,3.871,0,0,0-1.2-.862l-.047-.022A4.013,4.013,0,0,0,110.066,10H73.882A3.813,3.813,0,0,0,70,13.732V74.724a3.813,3.813,0,0,0,3.882,3.732h44a3.813,3.813,0,0,0,3.882-3.732V22.075a3.6,3.6,0,0,0-.287-1.407Zm-2.315-.36-6.091.6a2.272,2.272,0,0,1-1.867-.7,1.939,1.939,0,0,1-.526-1.619l1.264-5.994Zm.934,54.419a2.144,2.144,0,0,1-2.212,2.062h-44a2.143,2.143,0,0,1-2.212-2.062V13.732a2.144,2.144,0,0,1,2.212-2.062h36.184a2.356,2.356,0,0,1,.35.029l-1.384,6.567c0,.016-.006.031-.008.047a3.625,3.625,0,0,0,.955,3.032,3.919,3.919,0,0,0,2.884,1.236c.117,0,.235,0,.354-.015l6.865-.675q.009.091.009.184Z" transform="translate(0 0)" fill="#042340"/><path d="M120.58,408.884a3.563,3.563,0,0,1-1.862.494,3.41,3.41,0,0,1-1.541-.387,2.341,2.341,0,0,1-.512-.368,1.5,1.5,0,0,0-1.009-.46,1.939,1.939,0,0,0-1.591,1.011,3.068,3.068,0,0,1-.8.818,2.6,2.6,0,0,1-2.265.195,1.718,1.718,0,0,1-.581-.47,4.02,4.02,0,0,0,1.889-.791,4.324,4.324,0,0,0,1.22-1.539,2.16,2.16,0,0,0-.011-2.123,2.288,2.288,0,0,0-1.6-.939,3.568,3.568,0,0,0-2.687.615,3.458,3.458,0,0,0-1.144,2.827l-.055-.023a.835.835,0,0,0-.658,1.535,6.256,6.256,0,0,0,1.085.354,3.514,3.514,0,0,0,3.433,2.4,4.308,4.308,0,0,0,2.264-.63,4.608,4.608,0,0,0,1.241-1.228c.062-.083.139-.185.2-.262a3.9,3.9,0,0,0,.783.548,5.086,5.086,0,0,0,2.294.585,5.237,5.237,0,0,0,2.74-.721.835.835,0,1,0-.841-1.443Zm-10.8-.779,0-.014a2.11,2.11,0,0,1,.487-1.84,1.794,1.794,0,0,1,1.055-.3,2,2,0,0,1,.324.026.762.762,0,0,1,.47.2,1.862,1.862,0,0,1-.836,1.442,2.516,2.516,0,0,1-1.5.494Z" transform="translate(-31.741 -339.418)" fill="#3647d2"/><g transform="translate(74.93 18.549)"><path d="M106.271,73.112h25.941a.835.835,0,0,0,0-1.67H106.271a.835.835,0,0,0,0,1.67Z" transform="translate(-105.436 -71.442)" fill="#3647d2"/><path d="M106.271,121.534h25.941a.835.835,0,1,0,0-1.67H106.271a.835.835,0,1,0,0,1.67Z" transform="translate(-105.436 -113.127)" fill="#3647d2"/><path d="M146.8,168.287H106.271a.835.835,0,0,0,0,1.67H146.8a.835.835,0,1,0,0-1.67Z" transform="translate(-105.436 -154.812)" fill="#3647d2"/><path d="M146.8,216.71H106.271a.835.835,0,1,0,0,1.67H146.8a.835.835,0,1,0,0-1.67Z" transform="translate(-105.436 -196.498)" fill="#3647d2"/><path d="M146.8,265.133H106.271a.835.835,0,0,0,0,1.67H146.8a.835.835,0,0,0,0-1.67Z" transform="translate(-105.436 -238.183)" fill="#3647d2"/><path d="M146.8,313.555H106.271a.835.835,0,1,0,0,1.67H146.8a.835.835,0,1,0,0-1.67Z" transform="translate(-105.436 -279.868)" fill="#3647d2"/><path d="M146.8,361.547H106.271a.835.835,0,0,0,0,1.67H146.8a.835.835,0,0,0,0-1.67Z" transform="translate(-105.436 -321.183)" fill="#3647d2"/></g></g></svg>