<svg xmlns="http://www.w3.org/2000/svg" width="80.583" height="10.809" viewBox="0 0 80.583 10.809"><g transform="translate(-442.612 0)"><path d="M20745.246,13651.672h-69.268" transform="translate(-20223.051 -13646.081)" fill="none" stroke="#4b5981" stroke-linecap="round" stroke-width="2" stroke-dasharray="6"/><g transform="translate(448.963 10.81) rotate(180)"><g transform="translate(0 0)"><path d="M6.178,4.983,1.368.173a.593.593,0,0,0-.836,0L.177.527a.592.592,0,0,0,0,.836L4.217,5.4.173,9.446a.593.593,0,0,0,0,.836l.354.354a.593.593,0,0,0,.836,0L6.178,5.822a.6.6,0,0,0,0-.839Z" fill="#151b2e"/></g></g></g></svg>