<svg xmlns="http://www.w3.org/2000/svg" width="34.561" height="33.682" viewBox="0 0 34.561 33.682"><path d="M1000.165,262.664c-.429-3.27-1.583-5.576-3.43-6.853-2.287-1.581-4.94-1.9-7.281-2.185l-.478-.059a46.032,46.032,0,0,0-6.209-.373,47.224,47.224,0,0,0-8.4.845,15.153,15.153,0,0,0-3.338.978,7.336,7.336,0,0,0-3.2,2.606,12.8,12.8,0,0,0-1.608,6.193c-.154,2.15-.3,4.705-.243,7.348.022.989.052,2.14.131,3.277a18.807,18.807,0,0,0,1.707,7.357,8.117,8.117,0,0,0,6.5,4.253,61.362,61.362,0,0,0,8.62.822h.192a47.99,47.99,0,0,0,8.636-.882c2.262-.41,4.58-1.037,6.209-2.831,1.756-1.933,2.085-4.777,2.271-7.524A66.192,66.192,0,0,0,1000.165,262.664ZM989.2,255.709c2.2.266,4.48.542,6.341,1.829,1.339.925,2.195,2.742,2.543,5.4.076.573.134,1.148.183,1.725H984.3v-9.236a.975.975,0,0,0-.013-.12,43.608,43.608,0,0,1,4.428.343Zm-20.884,8.258a11.119,11.119,0,0,1,1.262-5.182,5.213,5.213,0,0,1,2.31-1.853,13.178,13.178,0,0,1,2.873-.831,45.181,45.181,0,0,1,7.448-.789,1.037,1.037,0,0,0-.011.115v20.9H968.4c-.094-.708-.156-1.4-.2-2.031-.075-1.094-.1-2.216-.127-3.182C968.02,268.561,968.167,266.068,968.318,263.967Zm1.359,16.855a10.832,10.832,0,0,1-.884-2.395H982.2v6.215c0,.037.007.072.01.108a64.63,64.63,0,0,1-7.583-.775C972.126,283.608,970.646,282.665,969.676,280.822Zm28.48-5.326c-.161,2.378-.427,4.821-1.731,6.256-1.268,1.4-3.261,1.856-5.03,2.177a49.972,49.972,0,0,1-7.109.816.992.992,0,0,0,.011-.1V266.76h14.091A83.6,83.6,0,0,1,998.156,275.5Z" transform="translate(-965.968 -253.193)" fill="#042340"/></svg>