<svg xmlns="http://www.w3.org/2000/svg" width="164" height="164" viewBox="0 0 164 164"><g transform="translate(-469 -97)" opacity="0.849"><circle cx="1.5" cy="1.5" r="1.5" transform="translate(469 97)" fill="#fff"/><circle cx="1.5" cy="1.5" r="1.5" transform="translate(492 97)" fill="#fff"/><circle cx="1.5" cy="1.5" r="1.5" transform="translate(515 97)" fill="#fff"/><circle cx="1.5" cy="1.5" r="1.5" transform="translate(538 97)" fill="#fff"/><circle cx="1.5" cy="1.5" r="1.5" transform="translate(561 97)" fill="#fff"/><circle cx="1.5" cy="1.5" r="1.5" transform="translate(584 97)" fill="#fff"/><circle cx="1.5" cy="1.5" r="1.5" transform="translate(607 97)" fill="#fff"/><circle cx="1.5" cy="1.5" r="1.5" transform="translate(630 97)" fill="#fff"/><circle cx="1.5" cy="1.5" r="1.5" transform="translate(469 120)" fill="#fff"/><circle cx="1.5" cy="1.5" r="1.5" transform="translate(492 120)" fill="#fff"/><circle cx="1.5" cy="1.5" r="1.5" transform="translate(515 120)" fill="#fff"/><circle cx="1.5" cy="1.5" r="1.5" transform="translate(538 120)" fill="#fff"/><circle cx="1.5" cy="1.5" r="1.5" transform="translate(561 120)" fill="#fff"/><circle cx="1.5" cy="1.5" r="1.5" transform="translate(584 120)" fill="#fff"/><circle cx="1.5" cy="1.5" r="1.5" transform="translate(607 120)" fill="#fff"/><circle cx="1.5" cy="1.5" r="1.5" transform="translate(630 120)" fill="#fff"/><circle cx="1.5" cy="1.5" r="1.5" transform="translate(469 143)" fill="#fff"/><circle cx="1.5" cy="1.5" r="1.5" transform="translate(492 143)" fill="#fff"/><circle cx="1.5" cy="1.5" r="1.5" transform="translate(515 143)" fill="#fff"/><circle cx="1.5" cy="1.5" r="1.5" transform="translate(538 143)" fill="#fff"/><circle cx="1.5" cy="1.5" r="1.5" transform="translate(561 143)" fill="#fff"/><circle cx="1.5" cy="1.5" r="1.5" transform="translate(584 143)" fill="#fff"/><circle cx="1.5" cy="1.5" r="1.5" transform="translate(607 143)" fill="#fff"/><circle cx="1.5" cy="1.5" r="1.5" transform="translate(630 143)" fill="#fff"/><circle cx="1.5" cy="1.5" r="1.5" transform="translate(469 166)" fill="#fff"/><circle cx="1.5" cy="1.5" r="1.5" transform="translate(492 166)" fill="#fff"/><circle cx="1.5" cy="1.5" r="1.5" transform="translate(515 166)" fill="#fff"/><circle cx="1.5" cy="1.5" r="1.5" transform="translate(538 166)" fill="#fff"/><circle cx="1.5" cy="1.5" r="1.5" transform="translate(561 166)" fill="#fff"/><circle cx="1.5" cy="1.5" r="1.5" transform="translate(584 166)" fill="#fff"/><circle cx="1.5" cy="1.5" r="1.5" transform="translate(607 166)" fill="#fff"/><circle cx="1.5" cy="1.5" r="1.5" transform="translate(630 166)" fill="#fff"/><circle cx="1.5" cy="1.5" r="1.5" transform="translate(469 189)" fill="#fff"/><circle cx="1.5" cy="1.5" r="1.5" transform="translate(492 189)" fill="#fff"/><circle cx="1.5" cy="1.5" r="1.5" transform="translate(515 189)" fill="#fff"/><circle cx="1.5" cy="1.5" r="1.5" transform="translate(538 189)" fill="#fff"/><circle cx="1.5" cy="1.5" r="1.5" transform="translate(561 189)" fill="#fff"/><circle cx="1.5" cy="1.5" r="1.5" transform="translate(584 189)" fill="#fff"/><circle cx="1.5" cy="1.5" r="1.5" transform="translate(607 189)" fill="#fff"/><circle cx="1.5" cy="1.5" r="1.5" transform="translate(630 189)" fill="#fff"/><circle cx="1.5" cy="1.5" r="1.5" transform="translate(469 212)" fill="#fff"/><circle cx="1.5" cy="1.5" r="1.5" transform="translate(492 212)" fill="#fff"/><circle cx="1.5" cy="1.5" r="1.5" transform="translate(515 212)" fill="#fff"/><circle cx="1.5" cy="1.5" r="1.5" transform="translate(538 212)" fill="#fff"/><circle cx="1.5" cy="1.5" r="1.5" transform="translate(561 212)" fill="#fff"/><circle cx="1.5" cy="1.5" r="1.5" transform="translate(584 212)" fill="#fff"/><circle cx="1.5" cy="1.5" r="1.5" transform="translate(607 212)" fill="#fff"/><circle cx="1.5" cy="1.5" r="1.5" transform="translate(630 212)" fill="#fff"/><circle cx="1.5" cy="1.5" r="1.5" transform="translate(469 235)" fill="#fff"/><circle cx="1.5" cy="1.5" r="1.5" transform="translate(492 235)" fill="#fff"/><circle cx="1.5" cy="1.5" r="1.5" transform="translate(515 235)" fill="#fff"/><circle cx="1.5" cy="1.5" r="1.5" transform="translate(538 235)" fill="#fff"/><circle cx="1.5" cy="1.5" r="1.5" transform="translate(561 235)" fill="#fff"/><circle cx="1.5" cy="1.5" r="1.5" transform="translate(584 235)" fill="#fff"/><circle cx="1.5" cy="1.5" r="1.5" transform="translate(607 235)" fill="#fff"/><circle cx="1.5" cy="1.5" r="1.5" transform="translate(630 235)" fill="#fff"/><circle cx="1.5" cy="1.5" r="1.5" transform="translate(469 258)" fill="#fff"/><circle cx="1.5" cy="1.5" r="1.5" transform="translate(492 258)" fill="#fff"/><circle cx="1.5" cy="1.5" r="1.5" transform="translate(515 258)" fill="#fff"/><circle cx="1.5" cy="1.5" r="1.5" transform="translate(538 258)" fill="#fff"/><circle cx="1.5" cy="1.5" r="1.5" transform="translate(561 258)" fill="#fff"/><circle cx="1.5" cy="1.5" r="1.5" transform="translate(584 258)" fill="#fff"/><circle cx="1.5" cy="1.5" r="1.5" transform="translate(607 258)" fill="#fff"/><circle cx="1.5" cy="1.5" r="1.5" transform="translate(630 258)" fill="#fff"/></g></svg>