<svg xmlns="http://www.w3.org/2000/svg" width="63" height="51" viewBox="0 0 63 51"><g opacity="0.196"><circle cx="1.5" cy="1.5" r="1.5" transform="translate(12)" fill="#212936"/><circle cx="1.5" cy="1.5" r="1.5" fill="#212936"/><circle cx="1.5" cy="1.5" r="1.5" transform="translate(24)" fill="#212936"/><circle cx="1.5" cy="1.5" r="1.5" transform="translate(48 12)" fill="#212936"/><circle cx="1.5" cy="1.5" r="1.5" transform="translate(12 12)" fill="#212936"/><circle cx="1.5" cy="1.5" r="1.5" transform="translate(0 12)" fill="#212936"/><circle cx="1.5" cy="1.5" r="1.5" transform="translate(24 12)" fill="#212936"/><circle cx="1.5" cy="1.5" r="1.5" transform="translate(36 12)" fill="#212936"/><circle cx="1.5" cy="1.5" r="1.5" transform="translate(12 24)" fill="#212936"/><circle cx="1.5" cy="1.5" r="1.5" transform="translate(0 24)" fill="#212936"/><circle cx="1.5" cy="1.5" r="1.5" transform="translate(24 24)" fill="#212936"/><circle cx="1.5" cy="1.5" r="1.5" transform="translate(36 24)" fill="#212936"/><circle cx="1.5" cy="1.5" r="1.5" transform="translate(12 36)" fill="#212936"/><circle cx="1.5" cy="1.5" r="1.5" transform="translate(0 36)" fill="#212936"/><circle cx="1.5" cy="1.5" r="1.5" transform="translate(24 36)" fill="#212936"/><circle cx="1.5" cy="1.5" r="1.5" transform="translate(36 36)" fill="#212936"/><circle cx="1.5" cy="1.5" r="1.5" transform="translate(12 48)" fill="#212936"/><circle cx="1.5" cy="1.5" r="1.5" transform="translate(0 48)" fill="#212936"/><circle cx="1.5" cy="1.5" r="1.5" transform="translate(24 48)" fill="#212936"/><circle cx="1.5" cy="1.5" r="1.5" transform="translate(60 12)" fill="#212936"/></g></svg>