<svg xmlns="http://www.w3.org/2000/svg" width="129" height="129" viewBox="0 0 129 129"><g transform="translate(-727 -3889)" opacity="0.2"><circle cx="1.5" cy="1.5" r="1.5" transform="translate(727 3889)" fill="#14537d"/><circle cx="1.5" cy="1.5" r="1.5" transform="translate(745 3889)" fill="#14537d"/><circle cx="1.5" cy="1.5" r="1.5" transform="translate(763 3889)" fill="#14537d"/><circle cx="1.5" cy="1.5" r="1.5" transform="translate(781 3889)" fill="#14537d"/><circle cx="1.5" cy="1.5" r="1.5" transform="translate(799 3889)" fill="#14537d"/><circle cx="1.5" cy="1.5" r="1.5" transform="translate(817 3889)" fill="#14537d"/><circle cx="1.5" cy="1.5" r="1.5" transform="translate(835 3889)" fill="#14537d"/><circle cx="1.5" cy="1.5" r="1.5" transform="translate(853 3889)" fill="#14537d"/><circle cx="1.5" cy="1.5" r="1.5" transform="translate(727 3907)" fill="#14537d"/><circle cx="1.5" cy="1.5" r="1.5" transform="translate(745 3907)" fill="#14537d"/><circle cx="1.5" cy="1.5" r="1.5" transform="translate(763 3907)" fill="#14537d"/><circle cx="1.5" cy="1.5" r="1.5" transform="translate(781 3907)" fill="#14537d"/><circle cx="1.5" cy="1.5" r="1.5" transform="translate(799 3907)" fill="#14537d"/><circle cx="1.5" cy="1.5" r="1.5" transform="translate(817 3907)" fill="#14537d"/><circle cx="1.5" cy="1.5" r="1.5" transform="translate(835 3907)" fill="#14537d"/><circle cx="1.5" cy="1.5" r="1.5" transform="translate(853 3907)" fill="#14537d"/><circle cx="1.5" cy="1.5" r="1.5" transform="translate(727 3925)" fill="#14537d"/><circle cx="1.5" cy="1.5" r="1.5" transform="translate(745 3925)" fill="#14537d"/><circle cx="1.5" cy="1.5" r="1.5" transform="translate(763 3925)" fill="#14537d"/><circle cx="1.5" cy="1.5" r="1.5" transform="translate(781 3925)" fill="#14537d"/><circle cx="1.5" cy="1.5" r="1.5" transform="translate(799 3925)" fill="#14537d"/><circle cx="1.5" cy="1.5" r="1.5" transform="translate(817 3925)" fill="#14537d"/><circle cx="1.5" cy="1.5" r="1.5" transform="translate(835 3925)" fill="#14537d"/><circle cx="1.5" cy="1.5" r="1.5" transform="translate(853 3925)" fill="#14537d"/><circle cx="1.5" cy="1.5" r="1.5" transform="translate(727 3943)" fill="#14537d"/><circle cx="1.5" cy="1.5" r="1.5" transform="translate(745 3943)" fill="#14537d"/><circle cx="1.5" cy="1.5" r="1.5" transform="translate(763 3943)" fill="#14537d"/><circle cx="1.5" cy="1.5" r="1.5" transform="translate(781 3943)" fill="#14537d"/><circle cx="1.5" cy="1.5" r="1.5" transform="translate(799 3943)" fill="#14537d"/><circle cx="1.5" cy="1.5" r="1.5" transform="translate(817 3943)" fill="#14537d"/><circle cx="1.5" cy="1.5" r="1.5" transform="translate(835 3943)" fill="#14537d"/><circle cx="1.5" cy="1.5" r="1.5" transform="translate(853 3943)" fill="#14537d"/><circle cx="1.5" cy="1.5" r="1.5" transform="translate(727 3961)" fill="#14537d"/><circle cx="1.5" cy="1.5" r="1.5" transform="translate(745 3961)" fill="#14537d"/><circle cx="1.5" cy="1.5" r="1.5" transform="translate(763 3961)" fill="#14537d"/><circle cx="1.5" cy="1.5" r="1.5" transform="translate(781 3961)" fill="#14537d"/><circle cx="1.5" cy="1.5" r="1.5" transform="translate(799 3961)" fill="#14537d"/><circle cx="1.5" cy="1.5" r="1.5" transform="translate(817 3961)" fill="#14537d"/><circle cx="1.5" cy="1.5" r="1.5" transform="translate(835 3961)" fill="#14537d"/><circle cx="1.5" cy="1.5" r="1.5" transform="translate(853 3961)" fill="#14537d"/><circle cx="1.5" cy="1.5" r="1.5" transform="translate(727 3979)" fill="#14537d"/><circle cx="1.5" cy="1.5" r="1.5" transform="translate(745 3979)" fill="#14537d"/><circle cx="1.5" cy="1.5" r="1.5" transform="translate(763 3979)" fill="#14537d"/><circle cx="1.5" cy="1.5" r="1.5" transform="translate(781 3979)" fill="#14537d"/><circle cx="1.5" cy="1.5" r="1.5" transform="translate(799 3979)" fill="#14537d"/><circle cx="1.5" cy="1.5" r="1.5" transform="translate(817 3979)" fill="#14537d"/><circle cx="1.5" cy="1.5" r="1.5" transform="translate(835 3979)" fill="#14537d"/><circle cx="1.5" cy="1.5" r="1.5" transform="translate(853 3979)" fill="#14537d"/><circle cx="1.5" cy="1.5" r="1.5" transform="translate(727 3997)" fill="#14537d"/><circle cx="1.5" cy="1.5" r="1.5" transform="translate(745 3997)" fill="#14537d"/><circle cx="1.5" cy="1.5" r="1.5" transform="translate(763 3997)" fill="#14537d"/><circle cx="1.5" cy="1.5" r="1.5" transform="translate(781 3997)" fill="#14537d"/><circle cx="1.5" cy="1.5" r="1.5" transform="translate(799 3997)" fill="#14537d"/><circle cx="1.5" cy="1.5" r="1.5" transform="translate(817 3997)" fill="#14537d"/><circle cx="1.5" cy="1.5" r="1.5" transform="translate(835 3997)" fill="#14537d"/><circle cx="1.5" cy="1.5" r="1.5" transform="translate(853 3997)" fill="#14537d"/><circle cx="1.5" cy="1.5" r="1.5" transform="translate(727 4015)" fill="#14537d"/><circle cx="1.5" cy="1.5" r="1.5" transform="translate(745 4015)" fill="#14537d"/><circle cx="1.5" cy="1.5" r="1.5" transform="translate(763 4015)" fill="#14537d"/><circle cx="1.5" cy="1.5" r="1.5" transform="translate(781 4015)" fill="#14537d"/><circle cx="1.5" cy="1.5" r="1.5" transform="translate(799 4015)" fill="#14537d"/><circle cx="1.5" cy="1.5" r="1.5" transform="translate(817 4015)" fill="#14537d"/><circle cx="1.5" cy="1.5" r="1.5" transform="translate(835 4015)" fill="#14537d"/><circle cx="1.5" cy="1.5" r="1.5" transform="translate(853 4015)" fill="#14537d"/></g></svg>