<svg xmlns="http://www.w3.org/2000/svg" width="75" height="75" viewBox="0 0 75 75"><g opacity="0.196"><circle cx="1.5" cy="1.5" r="1.5" transform="translate(72 72)" fill="#fff"/><circle cx="1.5" cy="1.5" r="1.5" transform="translate(60 72)" fill="#fff"/><circle cx="1.5" cy="1.5" r="1.5" transform="translate(72 60)" fill="#fff"/><circle cx="1.5" cy="1.5" r="1.5" transform="translate(60 60)" fill="#fff"/><circle cx="1.5" cy="1.5" r="1.5" transform="translate(72 48)" fill="#fff"/><circle cx="1.5" cy="1.5" r="1.5" transform="translate(60 48)" fill="#fff"/><circle cx="1.5" cy="1.5" r="1.5" transform="translate(72 36)" fill="#fff"/><circle cx="1.5" cy="1.5" r="1.5" transform="translate(60 36)" fill="#fff"/><circle cx="1.5" cy="1.5" r="1.5" transform="translate(72 24)" fill="#fff"/><circle cx="1.5" cy="1.5" r="1.5" transform="translate(60 24)" fill="#fff"/><circle cx="1.5" cy="1.5" r="1.5" transform="translate(60 12)" fill="#fff"/><circle cx="1.5" cy="1.5" r="1.5" transform="translate(36 12)" fill="#fff"/><circle cx="1.5" cy="1.5" r="1.5" transform="translate(12 12)" fill="#fff"/><circle cx="1.5" cy="1.5" r="1.5" transform="translate(0 12)" fill="#fff"/><circle cx="1.5" cy="1.5" r="1.5" transform="translate(60)" fill="#fff"/><circle cx="1.5" cy="1.5" r="1.5" transform="translate(36)" fill="#fff"/><circle cx="1.5" cy="1.5" r="1.5" transform="translate(12)" fill="#fff"/><circle cx="1.5" cy="1.5" r="1.5" fill="#fff"/><circle cx="1.5" cy="1.5" r="1.5" transform="translate(72 12)" fill="#fff"/><circle cx="1.5" cy="1.5" r="1.5" transform="translate(48 12)" fill="#fff"/><circle cx="1.5" cy="1.5" r="1.5" transform="translate(24 12)" fill="#fff"/><circle cx="1.5" cy="1.5" r="1.5" transform="translate(72)" fill="#fff"/><circle cx="1.5" cy="1.5" r="1.5" transform="translate(48)" fill="#fff"/><circle cx="1.5" cy="1.5" r="1.5" transform="translate(24)" fill="#fff"/></g></svg>