<svg xmlns="http://www.w3.org/2000/svg" width="52.101" height="67.994" viewBox="0 0 52.101 67.994"><g transform="translate(-0.5)"><path d="M152.272,251.467a1.029,1.029,0,0,1-.784-.361l-1.962-2.3a1.03,1.03,0,1,1,1.567-1.338L152.4,249l3.789-3.084a1.03,1.03,0,1,1,1.3,1.6l-4.57,3.718A1.026,1.026,0,0,1,152.272,251.467Zm0,0" transform="translate(-126.883 -209.522)" fill="#3647d2"/><path d="M157.5,407.738H151.19a1.03,1.03,0,0,0,0,2.06H157.5a1.03,1.03,0,0,0,0-2.06Zm0,0" transform="translate(-127.634 -347.73)" fill="#3647d2"/><path d="M128.348,214.162a1.03,1.03,0,0,0,.82,0l1.133-.489a11.39,11.39,0,0,0,6.976-10.5v-5.091a1.03,1.03,0,0,0-.546-.909L129.27,193.2a1.031,1.031,0,0,0-.98.006l-7.256,3.977a1.03,1.03,0,0,0-.535.9v5.194a11.413,11.413,0,0,0,6.841,10.446Zm-5.787-10.885v-4.584l6.232-3.415,6.425,3.423v4.472a9.333,9.333,0,0,1-5.723,8.6l-.007,0-.726.313-.6-.26A9.351,9.351,0,0,1,122.56,203.277Zm0,0" transform="translate(-102.339 -164.661)" fill="#042340"/><path d="M90.282,182.288H58.424V150.43h-2.06V190.08a6.212,6.212,0,0,0,6.2,6.2H86.137a6.212,6.212,0,0,0,6.205-6.2V150.726h-2.06Zm-4.145,11.937H62.568a4.15,4.15,0,0,1-4.144-4.144v-5.732H90.282v5.732A4.15,4.15,0,0,1,86.137,194.224Zm0,0" transform="translate(-47.642 -128.29)" fill="#042340"/><path d="M86.137,0H62.568a6.212,6.212,0,0,0-6.2,6.2V8.121h2.06V6.2A4.149,4.149,0,0,1,62.568,2.06H86.137A4.15,4.15,0,0,1,90.282,6.2V8.324h2.06V6.2A6.212,6.212,0,0,0,86.137,0Zm0,0" transform="translate(-47.642)" fill="#042340"/><path d="M52.595,55.667v-.012a1,1,0,0,0-.024-.137c0-.009,0-.018-.006-.026a1.169,1.169,0,0,0-.044-.131,1.1,1.1,0,0,0-.063-.125l-.015-.025a.983.983,0,0,0-.08-.113l-.007-.008a1.13,1.13,0,0,0-.094-.1.12.12,0,0,0-.012-.012l-7.931-6.968a1.032,1.032,0,0,0-.68-.256H9.752A1.03,1.03,0,0,0,9.086,48L.864,54.969a1.029,1.029,0,0,0-.362.79c0,.015,0,.029,0,.044v5.069a1.035,1.035,0,0,0,.109.461l.007.015a6.665,6.665,0,0,0,10.922,1.339,6.669,6.669,0,0,0,10.006,0,6.669,6.669,0,0,0,10.008,0,6.668,6.668,0,0,0,10.008,0,6.666,6.666,0,0,0,10.926-1.344,1.035,1.035,0,0,0,.114-.471V55.756C52.6,55.726,52.6,55.7,52.595,55.667ZM10.13,49.818H43.25l5.586,4.908H4.339ZM46.565,62.89A4.527,4.527,0,0,1,42.478,60.4a1.031,1.031,0,0,0-1.834,0,4.6,4.6,0,0,1-8.177,0,1.031,1.031,0,0,0-1.831,0,4.6,4.6,0,0,1-8.176,0c-.006-.012-.013-.025-.02-.037a1.03,1.03,0,0,0-1.81.036,4.6,4.6,0,0,1-8.176,0,1.031,1.031,0,0,0-1.831,0,4.6,4.6,0,0,1-8.063.21V56.786H50.539V60.61A4.52,4.52,0,0,1,46.565,62.89Zm0,0" transform="translate(0 -40.729)" fill="#3647d2"/><g transform="translate(2.56 2.06)"><path d="M78.923,14H74.508a4.15,4.15,0,0,0-4.144,4.144v.824h4.415v-.824A4.15,4.15,0,0,1,78.923,14Zm0,0" transform="translate(-62.142 -14)" fill="#042340" opacity="0.05"/><path d="M32.376,61.754l-5.79,4.907H31l5.79-4.907Zm0,0" transform="translate(-24.807 -54.726)" fill="#3647d2" opacity="0.05"/><path d="M74.778,386.627v-5.732H70.363v5.732a4.149,4.149,0,0,0,4.144,4.144h4.415A4.149,4.149,0,0,1,74.778,386.627Zm0,0" transform="translate(-62.142 -326.897)" fill="#042340" opacity="0.05"/><path d="M71.123,149.2a6.607,6.607,0,0,1-.755.735v31.3h4.415V151.322A6.622,6.622,0,0,1,71.123,149.2Zm0,0" transform="translate(-62.145 -129.301)" fill="#042340" opacity="0.05"/><path d="M18.915,112.926V109.1H14.5v3.825a4.519,4.519,0,0,0,3.974,2.278,4.615,4.615,0,0,0,2.208-.551A4.525,4.525,0,0,1,18.915,112.926Zm0,0" transform="translate(-14.5 -95.105)" fill="#3647d2" opacity="0.05"/><path d="M93.622,130.427a1.031,1.031,0,0,0-1.83,0,4.632,4.632,0,0,1-1.292,1.553,4.665,4.665,0,0,0,5,.382A4.563,4.563,0,0,1,93.622,130.427Zm0,0" transform="translate(-79.315 -112.818)" fill="#3647d2" opacity="0.05"/><path d="M229.611,130.428a1.031,1.031,0,0,0-1.831,0,4.626,4.626,0,0,1-1.292,1.553,4.546,4.546,0,0,0,2.8.935,4.606,4.606,0,0,0,2.208-.552A4.573,4.573,0,0,1,229.611,130.428Zm0,0" transform="translate(-195.289 -112.818)" fill="#3647d2" opacity="0.05"/><path d="M161.612,130.428c-.006-.012-.013-.025-.02-.037a1.03,1.03,0,0,0-1.81.036,4.632,4.632,0,0,1-1.293,1.554,4.553,4.553,0,0,0,2.8.935,4.609,4.609,0,0,0,2.208-.552A4.57,4.57,0,0,1,161.612,130.428Zm0,0" transform="translate(-137.297 -112.817)" fill="#3647d2" opacity="0.05"/><path d="M297.611,130.436a1.031,1.031,0,0,0-1.834,0,4.635,4.635,0,0,1-1.292,1.553,4.67,4.67,0,0,0,5.006.383A4.561,4.561,0,0,1,297.611,130.436Zm0,0" transform="translate(-253.278 -112.821)" fill="#3647d2" opacity="0.05"/></g></g></svg>