<svg xmlns="http://www.w3.org/2000/svg" width="23" height="23" viewBox="0 0 23 23"><g transform="translate(-769 -5487)"><rect width="23" height="23" rx="6" transform="translate(769 5487)" fill="#fff" opacity="0.793"/><g transform="translate(773.568 5491.637)"><path d="M14.117,10.254,12.167,8.3a1.3,1.3,0,0,0-2.159.487,1.327,1.327,0,0,1-1.532.836A6.013,6.013,0,0,1,4.855,6.006,1.262,1.262,0,0,1,5.69,4.474a1.3,1.3,0,0,0,.487-2.159L4.228.366a1.391,1.391,0,0,0-1.88,0L1.024,1.689C-.3,3.082,1.164,6.772,4.437,10.045s6.964,4.805,8.357,3.412l1.323-1.323A1.391,1.391,0,0,0,14.117,10.254Z" transform="translate(-0.539 0)" fill="#22274e"/></g></g></svg>