<svg xmlns="http://www.w3.org/2000/svg" width="26.448" height="30.316" viewBox="0 0 26.448 30.316"><g transform="translate(-746.333 -490.908)"><path d="M771.155,497.78l-4.142-4.684a6.483,6.483,0,0,0-4.855-2.188H751.916a5.589,5.589,0,0,0-5.583,5.583v19.15a5.589,5.589,0,0,0,5.583,5.583H767.2a5.589,5.589,0,0,0,5.583-5.583V502.072A6.475,6.475,0,0,0,771.155,497.78Zm-.234,17.861a3.728,3.728,0,0,1-3.723,3.723H751.916a3.728,3.728,0,0,1-3.723-3.723v-19.15a3.728,3.728,0,0,1,3.723-3.723h10.243a4.623,4.623,0,0,1,3.462,1.56l4.142,4.684a4.619,4.619,0,0,1,1.159,3.061Z" fill="#042340"/><path d="M769.294,522.174H757.772a.93.93,0,1,0,0,1.86h11.522a.93.93,0,1,0,0-1.86Z" transform="translate(-3.994 -11.884)" fill="#042340"/><path d="M769.294,515.644H757.772a.93.93,0,0,0,0,1.86h11.522a.93.93,0,1,0,0-1.86Z" transform="translate(-3.994 -9.402)" fill="#042340"/><path d="M757.772,510.974h4.866a.93.93,0,0,0,0-1.86h-4.866a.93.93,0,0,0,0,1.86Z" transform="translate(-3.994 -6.92)" fill="#042340"/></g></svg>