<svg xmlns="http://www.w3.org/2000/svg" width="67.222" height="80.634" viewBox="0 0 67.222 80.634"><g transform="translate(0 0)"><path d="M135.006,20.584a15.478,15.478,0,0,0-17.09,15.39V43.7a1.131,1.131,0,0,0,.52-.135,1.077,1.077,0,0,0,.572-.912l.275-6.03a1.131,1.131,0,0,1,1.188-1.078c.009,0,.251.012.682.02A15.5,15.5,0,0,1,135.006,20.584Z" transform="translate(-106.618 -18.237)" fill="#042340" opacity="0.05"/><path d="M107.392,143.862c-.007-.036-.015-.072-.026-.107l-.831-2.86a1.131,1.131,0,0,0-.92-.921,3.047,3.047,0,0,1-2.427-3.723,1.961,1.961,0,0,1,1.384-1.451,3.355,3.355,0,0,0,4.8-2.876l.224-4.923c.37,0,.821,0,1.341-.006-.054-.046-.11-.091-.164-.137-1.891.135-3.434.153-4.41.144l-.224,4.923a3.347,3.347,0,0,1-4.8,2.876,1.961,1.961,0,0,0-1.384,1.451,3.047,3.047,0,0,0,2.427,3.723,1.131,1.131,0,0,1,.92.921l.831,2.86c.01.035.019.071.026.107a14.314,14.314,0,0,0,15.712,11.6A14.352,14.352,0,0,1,107.392,143.862Z" transform="translate(-91.487 -107.408)" fill="#042340" opacity="0.05"/><path d="M225.273,312.1a16.561,16.561,0,0,0,3.02-.278l0-.947a16.546,16.546,0,0,1-4.639,1.147Q224.456,312.1,225.273,312.1Z" transform="translate(-195.272 -261.688)" fill="#042340" opacity="0.05"/><path d="M178.182,315.105v-3.288a16.555,16.555,0,0,1-3.232-.947V315.1a14.529,14.529,0,0,0,7.871,1.323,14.416,14.416,0,0,1-4.639-1.323Z" transform="translate(-154.436 -261.688)" fill="#042340" opacity="0.05"/><path d="M225.273,350.636a16.786,16.786,0,0,0,6.144-1.161l-1.872-.607a16.679,16.679,0,0,1-5.887,1.689C224.194,350.609,224.734,350.636,225.273,350.636Z" transform="translate(-195.272 -293.545)" fill="#042340" opacity="0.05"/><path d="M65.4,358.09q.033-.143.072-.285a7.523,7.523,0,0,1,5-5.124l9.889-3.206q-.691-.272-1.36-.607L67.24,352.682a7.522,7.522,0,0,0-5,5.124q-.039.142-.072.285A7.016,7.016,0,0,0,62,359.7V366.9H65.23V359.7A7.015,7.015,0,0,1,65.4,358.09Z" transform="translate(-59.735 -293.545)" fill="#042340" opacity="0.05"/><path d="M287.1,338.91A13.429,13.429,0,0,1,298.9,325.6a13.412,13.412,0,1,0,0,26.622A13.429,13.429,0,0,1,287.1,338.91Z" transform="translate(-245.731 -273.951)" fill="#3647d2" opacity="0.05"/><path d="M49.129,82.121H88.56V79.859h-38.3V72.652a7.005,7.005,0,0,1,.169-1.607c.022-.1.047-.191.072-.285a7.523,7.523,0,0,1,5-5.124l11.761-3.814a16.8,16.8,0,0,0,15.006,0l5.457,1.769.7-2.152-5.141-1.667V54.552a16.6,16.6,0,0,0,7.792-11.125l.672-2.311A5.311,5.311,0,0,0,95.264,34.8a4.231,4.231,0,0,0-2.757-3.025V24.237a17.737,17.737,0,1,0-35.473,0v7.54A4.231,4.231,0,0,0,54.271,34.8a5.311,5.311,0,0,0,3.516,6.312l.671,2.311A16.6,16.6,0,0,0,66.25,54.552v5.222L54.8,63.485a9.778,9.778,0,0,0-6.484,6.677q-.05.184-.094.37A9.233,9.233,0,0,0,48,72.652v8.338A1.131,1.131,0,0,0,49.129,82.121ZM76.2,24.564A22.309,22.309,0,0,0,90.245,31v.583c-3.123-.074-12.356-.752-19.7-5.963l.1-.013a48.2,48.2,0,0,0,5.56-1.047ZM59.3,24.237a15.474,15.474,0,1,1,30.949,0v4.49A20.877,20.877,0,0,1,78.72,23.839a25.769,25.769,0,0,0,7.7-3.909,1.131,1.131,0,1,0-1.377-1.8c-4.293,3.292-10.339,4.66-14.655,5.228a52.914,52.914,0,0,1-8.54.442,1.131,1.131,0,0,0-1.188,1.078l-.275,6.029a1.077,1.077,0,0,1-.572.913,1.131,1.131,0,0,1-.52.135Zm1.375,18.717a1.1,1.1,0,0,0-.026-.107l-.831-2.86a1.131,1.131,0,0,0-.92-.921,3.047,3.047,0,0,1-2.427-3.723,1.961,1.961,0,0,1,1.384-1.451,3.355,3.355,0,0,0,4.8-2.876l.224-4.923c.976.009,2.52-.009,4.41-.144,5.044,4.326,11.237,6.245,15.592,7.094a40.806,40.806,0,0,0,8.545.808c.025,0,.05,0,.074-.007a1.979,1.979,0,0,1,1.573,1.5,3.047,3.047,0,0,1-2.427,3.723,1.131,1.131,0,0,0-.92.921l-.831,2.86a1.088,1.088,0,0,0-.026.107,14.343,14.343,0,0,1-28.192,0Zm14.1,13.955a16.547,16.547,0,0,0,6.255-1.225v4.234a14.55,14.55,0,0,1-12.51,0V55.684A16.548,16.548,0,0,0,74.767,56.909Z" transform="translate(-47.998 -6.5)" fill="#042340"/><path d="M285.674,342.849A15.674,15.674,0,1,0,270,327.174,15.674,15.674,0,0,0,285.674,342.849Zm0-29.086a13.412,13.412,0,1,1-13.412,13.412,13.412,13.412,0,0,1,13.412-13.412Z" transform="translate(-234.127 -262.215)" fill="#3647d2"/><path d="M330.427,370.139l3.184-2.964v9.7a1.131,1.131,0,1,0,2.262,0v-9.7l3.184,2.964a1.131,1.131,0,1,0,1.541-1.656l-5.086-4.733a1.131,1.131,0,0,0-1.541,0l-5.086,4.733a1.131,1.131,0,1,0,1.541,1.656Z" transform="translate(-283.194 -305.767)" fill="#3647d2"/></g></svg>