<svg xmlns="http://www.w3.org/2000/svg" width="68.331" height="78.233" viewBox="0 0 68.331 78.233"><g transform="translate(0 0)"><path d="M128.827,25.083a15.317,15.317,0,0,0-16.912,15.23v7.643a1.119,1.119,0,0,0,.515-.134,1.066,1.066,0,0,0,.566-.9l.272-5.967a1.119,1.119,0,0,1,1.176-1.067c.009,0,.248.012.675.02a15.336,15.336,0,0,1,13.709-14.822Z" transform="translate(-100.789 -22.821)" fill="#042340" opacity="0.06"/><path d="M101.313,148.186q-.01-.053-.025-.106l-.823-2.83a1.119,1.119,0,0,0-.91-.911,3.015,3.015,0,0,1-2.4-3.684,1.941,1.941,0,0,1,1.37-1.436,3.32,3.32,0,0,0,4.747-2.846l.222-4.871c.366,0,.812,0,1.327-.006-.054-.046-.109-.09-.162-.136-1.871.133-3.4.151-4.364.142l-.222,4.871a3.312,3.312,0,0,1-4.747,2.846,1.941,1.941,0,0,0-1.37,1.436,3.015,3.015,0,0,0,2.4,3.684,1.119,1.119,0,0,1,.91.911l.823,2.83q.015.052.025.106a14.165,14.165,0,0,0,15.548,11.478A14.2,14.2,0,0,1,101.313,148.186Z" transform="translate(-85.629 -112.173)" fill="#042340" opacity="0.06"/><path d="M172.148,319.561v-3.253a16.4,16.4,0,0,1-3.2-.937v4.19a14.375,14.375,0,0,0,7.789,1.31A14.26,14.26,0,0,1,172.148,319.561Z" transform="translate(-148.704 -266.76)" fill="#042340" opacity="0.06"/><path d="M59.364,362.494q.033-.141.071-.281a7.444,7.444,0,0,1,4.948-5.071l9.786-3.173q-.684-.269-1.345-.6l-11.639,3.774a7.443,7.443,0,0,0-4.948,5.071q-.039.14-.071.281a6.94,6.94,0,0,0-.168,1.59v7.132h3.2v-7.132A6.94,6.94,0,0,1,59.364,362.494Z" transform="translate(-53.813 -298.681)" fill="#042340" opacity="0.06"/><rect width="17.364" height="1.809" transform="translate(43.182 65.742) rotate(-45)" fill="#3647d2" opacity="0.06"/><path d="M293.631,436.742l-1.279-1.279-2.51,7.531,1.919-.64Z" transform="translate(-250.265 -367.649)" fill="#3647d2" opacity="0.06"/><path d="M400.345,323.505l2.587-2.587-1.279-1.279-2.587,2.587,6,6h0Z" transform="translate(-342.023 -270.346)" fill="#3647d2" opacity="0.06"/><path d="M77.254,64.091V58.923a16.424,16.424,0,0,0,7.711-11.009l.665-2.286a5.256,5.256,0,0,0,3.479-6.247,4.187,4.187,0,0,0-2.728-2.994V28.925a17.552,17.552,0,1,0-35.1,0v7.462a4.188,4.188,0,0,0-2.734,3,5.257,5.257,0,0,0,3.48,6.247l.665,2.286A16.422,16.422,0,0,0,60.4,58.924v5.168L49.073,67.763a9.676,9.676,0,0,0-6.416,6.607q-.05.182-.093.366a9.136,9.136,0,0,0-.226,2.1v8.251a1.119,1.119,0,0,0,1.119,1.119H81.278V83.967h-36.7V76.836a6.94,6.94,0,0,1,.168-1.59q.033-.141.071-.281a7.444,7.444,0,0,1,4.948-5.071L61.4,66.119a16.629,16.629,0,0,0,14.85,0L87.89,69.893a7.744,7.744,0,0,1,2.291,1.193L91.532,69.3a9.984,9.984,0,0,0-2.952-1.537ZM70.247,29.249a22.076,22.076,0,0,0,13.9,6.373V36.2c-3.092-.076-12.237-.755-19.5-5.9l.1-.013a47.693,47.693,0,0,0,5.5-1.037Zm-16.73-.324a15.313,15.313,0,1,1,30.626,0v4.443a20.66,20.66,0,0,1-11.4-4.837,25.5,25.5,0,0,0,7.623-3.868A1.119,1.119,0,1,0,79,22.886C74.752,26.144,68.768,27.5,64.5,28.06a52.329,52.329,0,0,1-8.451.438,1.119,1.119,0,0,0-1.175,1.067L54.6,35.531a1.066,1.066,0,0,1-.566.9,1.119,1.119,0,0,1-.515.134Zm1.361,18.522a1.068,1.068,0,0,0-.025-.106l-.823-2.83a1.119,1.119,0,0,0-.91-.911,3,3,0,0,1-2.488-2.965,3.036,3.036,0,0,1,.086-.72,1.94,1.94,0,0,1,1.37-1.436,3.32,3.32,0,0,0,4.746-2.846l.222-4.871c.964.009,2.493-.009,4.364-.142a33.888,33.888,0,0,0,15.43,7.02,40.407,40.407,0,0,0,8.455.8c.025,0,.049,0,.074-.007a1.958,1.958,0,0,1,1.556,1.483,3.015,3.015,0,0,1-2.4,3.685,1.119,1.119,0,0,0-.91.911l-.823,2.83a1.061,1.061,0,0,0-.025.106,14.193,14.193,0,0,1-27.9,0Zm7.759,16.787v-4.19a16.4,16.4,0,0,0,12.379,0v4.19A14.4,14.4,0,0,1,62.637,64.234Z" transform="translate(-42.337 -11.373)" fill="#042340"/><path d="M295.511,303.066a1.119,1.119,0,0,0-1.583,0L275.9,321.1c-.015.015-.028.032-.042.047l-.025.027a1.158,1.158,0,0,0-.079.106h0a1.1,1.1,0,0,0-.064.114l-.012.027a1.073,1.073,0,0,0-.041.1c0,.006,0,.011-.007.016l-3.791,11.373a1.119,1.119,0,0,0,1.416,1.416l11.372-3.79.018-.007q.05-.017.1-.04l.028-.013a1.121,1.121,0,0,0,.112-.063l0,0a1.155,1.155,0,0,0,.1-.078l.028-.025c.016-.014.032-.027.047-.042l18.031-18.032a1.119,1.119,0,0,0,0-1.583ZM284.27,327.889l-6-6,12.279-12.278,6,6Zm-9.6,3.6,2.511-7.532,5.021,5.021Zm23.465-17.465-6-6,2.587-2.587,6,6Z" transform="translate(-235.089 -256.148)" fill="#3647d2"/></g></svg>